#!OML:ASF X:\für Bonn\!DataBase\2005_08_10_Bjorn_Final\c3d\bjorn.ASF
:FULLY-SPECIFIED
:DEGREES
282
root 0.34705 4.55551 21.6381 -245.26 -0.8792 -539.066
lowerback 48.0266 5.73166 12.2615
upperback 23.5008 -0.291238 5.07838
thorax 6.92409 -5.22769 -0.826071
lowerneck -9.35743 2.65555 3.4606
upperneck 14.8608 4.70428 -16.3204
head 6.5482 0.793443 -5.51324
rclavicle 6.44062e-014 2.10712e-014
rhumerus -64.0434 -39.0852 -49.9013
rradius 23.2569
rwrist -14.7176
rhand -14.4837 -4.59576
rfingers 7.12502
rthumb 11.6627 -34.2512
lclavicle 6.44062e-014 2.10712e-014
lhumerus -39.7923 11.678 81.8209
lradius 16.9838
lwrist 0.810947
lhand -27.2062 -352.142
lfingers 7.12502
lthumb -0.61922 37.8373
rfemur -66.2616 -33.6098 3.30953
rtibia 124.472
rfoot 11.8393 19.6798
rtoes -1.44052
lfemur -29.5186 59.8724 55.9889
ltibia 147.529
lfoot -34.4393 -28.4789
ltoes -26.1863
283
root 0.340177 4.5493 21.617 -245.296 -0.837865 -538.964
lowerback 48.2037 5.7914 12.2584
upperback 23.5669 -0.306322 5.13296
thorax 6.9778 -5.28738 -0.764102
lowerneck -9.61774 2.76208 3.11695
upperneck 14.4496 4.87728 -16.4326
head 6.48293 0.857214 -5.46432
rclavicle -2.79292e-014 -2.34566e-014
rhumerus -64.0602 -39.1482 -49.7513
rradius 23.1818
rwrist -14.5263
rhand -14.3271 -4.36517
rfingers 7.12502
rthumb 11.8137 -34.012
lclavicle -2.79292e-014 -2.34566e-014
lhumerus -39.913 11.0711 82.2174
lradius 17.2728
lwrist 1.52635
lhand -27.1852 -352.065
lfingers 7.12502
lthumb -0.598995 37.9141
rfemur -66.1678 -33.9902 3.20389
rtibia 124.545
rfoot 11.9539 19.8427
rtoes -1.26543
lfemur -28.6032 60.175 57.2386
ltibia 147.703
lfoot -35.0705 -28.1135
ltoes -26.78
284
root 0.333672 4.54395 21.5936 -245.359 -0.755829 -538.846
lowerback 48.4034 5.83005 12.3177
upperback 23.6272 -0.320686 5.16526
thorax 7.029 -5.339 -0.753318
lowerneck -9.80335 2.87901 2.79473
upperneck 14.007 5.05283 -16.525
head 6.39393 0.931236 -5.41151
rclavicle 3.04141e-014 -5.96354e-015
rhumerus -64.1597 -39.2898 -49.5086
rradius 23.0587
rwrist -14.2254
rhand -14.1532 -4.13026
rfingers 7.12502
rthumb 11.9814 -33.7673
lclavicle 3.04141e-014 -5.96354e-015
lhumerus -40.0356 10.5174 82.5095
lradius 17.5237
lwrist 2.17326
lhand -27.146 -351.985
lfingers 7.12502
lthumb -0.561085 37.9939
rfemur -66.02 -34.3824 3.10415
rtibia 124.629
rfoot 12.0181 20.0685
rtoes -1.07265
lfemur -27.4192 60.4866 58.8561
ltibia 147.875
lfoot -35.732 -27.8604
ltoes -27.2186
285
root 0.328749 4.53785 21.5702 -245.442 -0.683291 -538.707
lowerback 48.634 5.86069 12.3795
upperback 23.6656 -0.332476 5.21841
thorax 7.05079 -5.3915 -0.717688
lowerneck -9.89958 2.97497 2.3778
upperneck 13.519 5.19456 -16.5887
head 6.26789 0.991512 -5.33527
rclavicle 2.98177e-016 7.15625e-015
rhumerus -64.2929 -39.4594 -49.137
rradius 22.8721
rwrist -13.8647
rhand -13.9378 -3.88615
rfingers 7.12502
rthumb 12.1891 -33.511
lclavicle 2.98177e-016 7.15625e-015
lhumerus -40.1945 10.0613 82.7635
lradius 17.7436
lwrist 2.67169
lhand -27.1146 -351.968
lfingers 7.12502
lthumb -0.530768 38.011
rfemur -65.8638 -34.7807 3.00077
rtibia 124.725
rfoot 12.121 20.2754
rtoes -0.70851
lfemur -26.3959 60.7322 60.3215
ltibia 148.031
lfoot -36.2424 -27.6926
ltoes -27.5001
286
root 0.324285 4.53192 21.5449 -245.514 -0.628949 -538.55
lowerback 48.8392 5.88278 12.4411
upperback 23.7021 -0.346798 5.2604
thorax 7.07418 -5.43847 -0.693732
lowerneck -9.9778 3.07131 1.97515
upperneck 13.005 5.32774 -16.6362
head 6.129 1.05423 -5.25701
rclavicle 2.19657e-014 1.78906e-014
rhumerus -64.3908 -39.6149 -48.8324
rradius 22.6542
rwrist -13.5407
rhand -13.7299 -3.65217
rfingers 7.12502
rthumb 12.3896 -33.265
lclavicle 2.19657e-014 1.78906e-014
lhumerus -40.3571 9.5179 83.0338
lradius 17.9834
lwrist 3.27234
lhand -27.0749 -351.893
lfingers 7.12502
lthumb -0.492419 38.0865
rfemur -65.6977 -35.2418 2.86983
rtibia 124.831
rfoot 12.2241 20.5275
rtoes -0.369596
lfemur -25.5413 60.9413 61.6306
ltibia 148.182
lfoot -36.5049 -27.7582
ltoes -27.2806
287
root 0.322303 4.52771 21.521 -245.593 -0.584673 -538.425
lowerback 49.1128 5.91344 12.4602
upperback 23.6965 -0.345098 5.2904
thorax 7.03331 -5.47972 -0.658793
lowerneck -10.037 3.17043 1.50808
upperneck 12.4969 5.46396 -16.6377
head 5.98568 1.11967 -5.15352
rclavicle 2.25621e-014 2.06736e-014
rhumerus -64.5445 -39.7806 -48.4434
rradius 22.4174
rwrist -13.0939
rhand -13.5156 -3.42508
rfingers 7.12502
rthumb 12.5961 -33.0253
lclavicle 2.25621e-014 2.06736e-014
lhumerus -40.5735 8.99812 83.2881
lradius 18.2253
lwrist 3.91654
lhand -27.0812 -351.825
lfingers 7.12502
lthumb -0.498492 38.154
rfemur -65.5399 -35.6534 2.73716
rtibia 124.928
rfoot 12.3322 20.7614
rtoes 0.0276262
lfemur -24.7902 61.0798 62.7683
ltibia 148.292
lfoot -36.4688 -28.0603
ltoes -26.4996
288
root 0.320287 4.5225 21.4956 -245.68 -0.552438 -538.275
lowerback 49.4405 5.9056 12.5075
upperback 23.6488 -0.353345 5.30132
thorax 6.93874 -5.51687 -0.645832
lowerneck -10.1247 3.28224 1.01757
upperneck 12.0455 5.62296 -16.6128
head 5.8654 1.19286 -5.0379
rclavicle 5.96354e-016 -2.26615e-014
rhumerus -64.7448 -39.9608 -48.0057
rradius 22.1615
rwrist -12.6198
rhand -13.2894 -3.27349
rfingers 7.12502
rthumb 12.8142 -32.8602
lclavicle 5.96354e-016 -2.26615e-014
lhumerus -40.8193 8.62812 83.4292
lradius 18.4179
lwrist 4.34081
lhand -27.0883 -351.77
lfingers 7.12502
lthumb -0.50541 38.2088
rfemur -65.3511 -36.1041 2.56732
rtibia 125.04
rfoot 12.5241 21.001
rtoes 0.783946
lfemur -24.3173 61.1807 63.6132
ltibia 148.407
lfoot -36.3411 -28.3334
ltoes -25.7481
289
root 0.320265 4.51793 21.4696 -245.763 -0.513036 -538.106
lowerback 49.7843 5.89269 12.5489
upperback 23.5798 -0.357992 5.31524
thorax 6.8173 -5.55116 -0.624168
lowerneck -10.191 3.41521 0.503483
upperneck 11.5946 5.80899 -16.5808
head 5.74233 1.27979 -4.91505
rclavicle -1.59028e-015 -2.0276e-014
rhumerus -65.0335 -40.2705 -47.3338
rradius 21.7909
rwrist -11.9107
rhand -13.0809 -3.06276
rfingers 7.12502
rthumb 13.0152 -32.6367
lclavicle -1.59028e-015 -2.0276e-014
lhumerus -41.0635 8.20318 83.5965
lradius 18.6002
lwrist 4.86712
lhand -27.0864 -351.714
lfingers 7.12502
lthumb -0.503549 38.2655
rfemur -65.1692 -36.5497 2.43224
rtibia 125.154
rfoot 12.7383 21.2192
rtoes 1.61828
lfemur -23.9984 61.261 64.336
ltibia 148.504
lfoot -36.0568 -28.7372
ltoes -24.7346
290
root 0.322244 4.51331 21.4444 -245.858 -0.490607 -537.952
lowerback 50.1521 5.88499 12.5728
upperback 23.499 -0.354587 5.31435
thorax 6.678 -5.58049 -0.609788
lowerneck -10.1667 3.54825 -0.0121152
upperneck 11.1184 5.98241 -16.5382
head 5.59256 1.36842 -4.79099
rclavicle -1.16786e-014 -9.54166e-015
rhumerus -65.3524 -40.6164 -46.6139
rradius 21.3765
rwrist -11.1282
rhand -12.8745 -2.88139
rfingers 7.12502
rthumb 13.2141 -32.4426
lclavicle -1.16786e-014 -9.54166e-015
lhumerus -41.2826 7.95982 83.6266
lradius 18.6723
lwrist 5.13848
lhand -27.0844 -351.728
lfingers 7.12502
lthumb -0.501626 38.251
rfemur -64.9775 -36.9611 2.28984
rtibia 125.268
rfoot 12.9611 21.4457
rtoes 2.48976
lfemur -23.7019 61.3108 64.9958
ltibia 148.584
lfoot -35.712 -29.1746
ltoes -23.6151
291
root 0.325364 4.50846 21.4182 -245.953 -0.471593 -537.79
lowerback 50.4826 5.87806 12.5952
upperback 23.4281 -0.3523 5.31631
thorax 6.55631 -5.60805 -0.594221
lowerneck -10.0599 3.69139 -0.505016
upperneck 10.6541 6.16026 -16.5629
head 5.43464 1.45683 -4.69499
rclavicle -4.44781e-014 6.36111e-015
rhumerus -65.8158 -41.1271 -45.6051
rradius 20.8882
rwrist -10.0733
rhand -12.6287 -2.70267
rfingers 7.12502
rthumb 13.4511 -32.2483
lclavicle -4.44781e-014 6.36111e-015
lhumerus -41.5154 7.63879 83.6998
lradius 18.7926
lwrist 5.5498
lhand -27.103 -351.668
lfingers 7.12502
lthumb -0.519582 38.3113
rfemur -64.7883 -37.3793 2.14798
rtibia 125.401
rfoot 13.1692 21.651
rtoes 3.33215
lfemur -23.2345 61.4096 65.9107
ltibia 148.669
lfoot -35.2983 -29.7843
ltoes -22.1263
292
root 0.329338 4.50499 21.3921 -246.062 -0.465181 -537.637
lowerback 50.7548 5.86278 12.6388
upperback 23.4033 -0.374499 5.28755
thorax 6.49952 -5.64307 -0.623187
lowerneck -9.89838 3.84612 -0.982317
upperneck 10.1666 6.34095 -16.57
head 5.25905 1.55558 -4.5972
rclavicle 1.32192e-014 -2.26615e-014
rhumerus -66.37 -41.8194 -44.3907
rradius 20.2877
rwrist -8.73301
rhand -12.4427 -2.46778
rfingers 7.12502
rthumb 13.6303 -32.0015
lclavicle 1.32192e-014 -2.26615e-014
lhumerus -41.6756 7.37057 83.6889
lradius 18.8491
lwrist 5.88575
lhand -27.1086 -351.658
lfingers 7.12502
lthumb -0.524937 38.3207
rfemur -64.5597 -37.7477 1.97274
rtibia 125.53
rfoot 13.3774 21.8478
rtoes 4.05336
lfemur -22.7961 61.474 66.7918
ltibia 148.749
lfoot -34.806 -30.4871
ltoes -20.4016
